<svg width="375" height="251" viewBox="0 0 375 251" fill="none" xmlns="http://www.w3.org/2000/svg">
<path fill-rule="evenodd" clip-rule="evenodd" d="M372.679 392.499C344.083 403.451 122.103 481.059 14.9038 295.703C-21.6316 232.53 0.0500848 151.751 63.3313 115.278C126.613 78.8051 207.53 100.45 244.065 163.623L246.372 167.61C236.987 167.714 233.477 166.132 233.03 164.81C224.658 155.005 205.428 133.904 195.477 127.938C185.527 121.972 185.765 130.835 187.127 136.012L215.814 182.882L204.987 223.288C202.1 234.063 207.104 241.041 209.967 243.183C215.752 234.422 228.222 215.078 231.824 207.794C239.662 209.869 243.316 212.851 248.574 220.974C250.79 224.399 339.636 346.938 372.679 392.499ZM290.294 243.556C280.522 234.47 271.622 223.633 264.406 211.427C260.268 203.912 258.703 198.726 257.767 187.936L258.064 187.827L290.294 243.556Z" fill="#98BC39"/>
<path fill-rule="evenodd" clip-rule="evenodd" d="M358.693 373.542C298.511 377.002 96.8256 374.092 45.4708 186.357C26.1783 115.831 68.9066 43.3382 140.907 24.4406C212.908 5.54311 286.915 47.3967 306.208 117.923L348.898 273.984C319.637 270.5 285.101 246.761 264.406 211.755C260.268 204.241 258.703 199.055 257.767 188.265L296.664 173.94C294.145 170.515 286.591 163.817 276.53 164.421C243.571 170.438 233.797 167.406 233.03 165.138C224.658 155.334 205.428 134.232 195.477 128.267C185.527 122.301 185.765 131.164 187.127 136.341L215.814 183.21L204.987 223.617C202.1 234.392 207.104 241.37 209.967 243.512C215.752 234.751 228.222 215.407 231.824 208.123C239.662 210.198 243.316 213.18 248.574 221.303C250.526 224.319 319.648 319.693 358.693 373.542Z" fill="#009CE0"/>
<path fill-rule="evenodd" clip-rule="evenodd" d="M376.304 397.825C342.377 392.183 118.496 346.868 118.496 133.581C118.496 60.0763 177.168 0.489258 249.543 0.489258C321.918 0.489258 380.59 60.0763 380.59 133.581L380.59 267.65C349.888 287.883 293.485 260.941 264.406 211.755C260.268 204.241 258.703 199.055 257.767 188.265L296.664 173.94C294.145 170.515 286.591 163.817 276.53 164.42C243.571 170.438 233.797 167.406 233.03 165.138C224.658 155.333 205.428 134.232 195.477 128.267C185.527 122.301 185.765 131.163 187.127 136.34L215.814 183.21L204.987 223.617C202.1 234.392 207.104 241.37 209.967 243.512C215.752 234.751 228.222 215.407 231.824 208.123C239.662 210.198 243.316 213.18 248.574 221.303C250.877 224.862 346.744 357.069 376.304 397.825Z" fill="#FF4D4D"/>
</svg>
