<svg width="270" height="62" viewBox="0 0 270 62" fill="none" xmlns="http://www.w3.org/2000/svg">
<path d="M20.6766 41.9762H28.2606C27.1086 44.4722 25.0446 46.0562 21.1566 46.0562C15.9726 46.0562 12.5166 42.6002 12.5166 36.6962C12.5166 30.7922 16.4526 27.8162 21.1566 27.8162C24.3726 27.8162 26.0526 29.6882 27.2046 31.8002L37.0446 27.3842C33.6846 22.7282 28.7886 18.9362 21.1566 18.9362C9.92456 18.9362 1.47656 25.7042 1.47656 36.6962C1.47656 47.6882 9.44456 54.9362 20.6766 54.9362C32.8686 54.9362 39.4926 45.7682 38.5326 34.2962H20.6766V41.9762ZM41.6953 42.4562C41.6953 49.6082 47.3593 53.9762 55.0393 53.9762C62.7193 53.9762 68.3833 49.6082 68.3833 42.4562C68.3833 35.3042 62.7193 30.8882 55.0393 30.8882C47.3593 30.8882 41.6953 35.3042 41.6953 42.4562ZM51.3433 42.4562C51.3433 39.7682 53.1193 38.3282 55.0393 38.3282C56.9593 38.3282 58.7353 39.7682 58.7353 42.4562C58.7353 45.1442 56.9593 46.5362 55.0393 46.5362C53.1193 46.5362 51.3433 45.1442 51.3433 42.4562ZM65.0522 29.2562H74.6522V53.4962H85.2122V29.2562H94.8122V19.8962H65.0522V29.2562ZM91.4766 42.4562C91.4766 49.6082 97.1406 53.9762 104.821 53.9762C112.501 53.9762 118.165 49.6082 118.165 42.4562C118.165 35.3042 112.501 30.8882 104.821 30.8882C97.1406 30.8882 91.4766 35.3042 91.4766 42.4562ZM101.125 42.4562C101.125 39.7682 102.901 38.3282 104.821 38.3282C106.741 38.3282 108.517 39.7682 108.517 42.4562C108.517 45.1442 106.741 46.5362 104.821 46.5362C102.901 46.5362 101.125 45.1442 101.125 42.4562ZM122.975 19.8962V53.4962H133.535V40.7762H145.535V53.4962H156.095V19.8962H145.535V31.4162H133.535V19.8962H122.975ZM184.658 19.8962V35.1122L162.818 18.2162V53.4962H172.898V38.2802L194.738 55.1762V19.8962H184.658Z" fill="black"/>
<path fill-rule="evenodd" clip-rule="evenodd" d="M215.3 57.7995C219.462 59.3936 251.771 70.6893 267.374 43.7109C272.691 34.5161 269.536 22.7588 260.325 17.4502C251.115 12.1416 239.337 15.2919 234.019 24.4867L233.684 25.0671C235.05 25.0822 235.56 24.8519 235.626 24.6595C236.844 23.2324 239.643 20.1611 241.091 19.2928C242.54 18.4245 242.505 19.7144 242.307 20.468L238.131 27.2898L239.707 33.171C240.127 34.7393 239.399 35.7549 238.982 36.0667C238.14 34.7915 236.325 31.976 235.801 30.9158C234.66 31.2178 234.128 31.6519 233.363 32.8342C233.041 33.3327 220.109 51.1681 215.3 57.7995ZM227.291 36.1209C228.713 34.7985 230.008 33.2212 231.059 31.4445C231.661 30.3508 231.889 29.596 232.025 28.0255L231.982 28.0096L227.291 36.1209Z" fill="#98BC39"/>
<path fill-rule="evenodd" clip-rule="evenodd" d="M217.335 55.0403C226.095 55.544 255.45 55.1205 262.925 27.7957C265.733 17.5306 259.514 6.97938 249.034 4.22886C238.554 1.47834 227.783 7.5701 224.975 17.8352L218.761 40.5496C223.02 40.0425 228.047 36.5874 231.059 31.4923C231.661 30.3986 231.889 29.6438 232.025 28.0733L226.364 25.9883C226.73 25.4899 227.83 24.5149 229.294 24.6028C234.091 25.4785 235.514 25.0373 235.626 24.7072C236.844 23.2802 239.643 20.2089 241.091 19.3406C242.54 18.4723 242.505 19.7622 242.307 20.5157L238.131 27.3376L239.707 33.2188C240.127 34.7871 239.399 35.8027 238.982 36.1145C238.14 34.8393 236.325 32.0238 235.801 30.9636C234.66 31.2656 234.128 31.6997 233.363 32.8819C233.079 33.3209 223.018 47.2027 217.335 55.0403Z" fill="#009CE0"/>
<path fill-rule="evenodd" clip-rule="evenodd" d="M214.772 58.5747C219.71 57.7534 252.296 51.1579 252.296 20.114C252.296 9.41553 243.756 0.742676 233.222 0.742676C222.688 0.742676 214.148 9.41553 214.148 20.114L214.148 39.6278C218.617 42.5726 226.826 38.6513 231.059 31.4923C231.661 30.3986 231.889 29.6438 232.025 28.0733L226.364 25.9883C226.73 25.4899 227.83 24.5149 229.294 24.6028C234.091 25.4785 235.514 25.0373 235.626 24.7072C236.844 23.2802 239.643 20.2089 241.091 19.3406C242.54 18.4723 242.505 19.7622 242.307 20.5157L238.131 27.3376L239.707 33.2188C240.127 34.7871 239.399 35.8027 238.982 36.1145C238.14 34.8393 236.325 32.0238 235.801 30.9636C234.66 31.2656 234.128 31.6997 233.363 32.8819C233.028 33.4 219.075 52.6427 214.772 58.5747Z" fill="#FF4D4D"/>
</svg>
