<svg width="229" height="229" viewBox="0 0 229 229" fill="none" xmlns="http://www.w3.org/2000/svg">
<circle cx="114.5" cy="114.767" r="114.156" fill="#E0F5FF"/>
<path d="M172.686 164.555L158.592 75.5182C149.516 87.619 147.935 142.21 148.279 167.993C150.57 165.243 155.842 158.436 158.592 153.211C164.917 162.286 170.624 164.555 172.686 164.555Z" fill="#133C6D"/>
<path d="M141.017 150.461L158.55 152.867C155.405 159.291 153.107 162.579 148.236 167.993L137.923 168.337L141.017 150.461Z" fill="#007DB4"/>
<path d="M57.137 163.524C51.9116 144.548 65.9605 95.3425 73.6381 73.1118C75.1277 73.1118 94.1267 73.5931 158.206 75.5182C150.505 92.8444 148.122 144.387 147.893 167.993C144.913 168.795 122.591 169.024 57.137 163.524Z" fill="#009CE0"/>
<path d="M68.1198 124.963L68.7762 122.712C69.1495 121.432 70.3228 120.552 71.6562 120.552H74.688C76.688 120.552 78.128 122.472 77.568 124.392L76.9116 126.643C76.5383 127.923 75.365 128.803 74.0316 128.803H70.9998C68.9998 128.803 67.5598 126.883 68.1198 124.963Z" fill="#EEEEEE"/>
<path d="M83.2459 124.963L83.9023 122.712C84.2756 121.432 85.4489 120.552 86.7823 120.552H89.8141C91.8141 120.552 93.2541 122.472 92.6941 124.392L92.0377 126.643C91.6644 127.923 90.4911 128.803 89.1577 128.803H86.1259C84.1259 128.803 82.6859 126.883 83.2459 124.963Z" fill="#EEEEEE"/>
<path d="M98.372 124.963L99.0284 122.712C99.4017 121.432 100.575 120.552 101.908 120.552H104.94C106.94 120.552 108.38 122.472 107.82 124.392L107.164 126.643C106.79 127.923 105.617 128.803 104.284 128.803H101.252C99.252 128.803 97.812 126.883 98.372 124.963Z" fill="#EEEEEE"/>
<path d="M113.498 124.963L114.154 122.712C114.528 121.432 115.701 120.552 117.034 120.552H120.066C122.066 120.552 123.506 122.472 122.946 124.392L122.29 126.643C121.917 127.923 120.743 128.803 119.41 128.803H116.378C114.378 128.803 112.938 126.883 113.498 124.963Z" fill="#EEEEEE"/>
<path d="M128.624 124.963L129.281 122.712C129.654 121.432 130.827 120.552 132.161 120.552H135.192C137.192 120.552 138.632 122.472 138.072 124.392L137.416 126.643C137.043 127.923 135.869 128.803 134.536 128.803H131.504C129.504 128.803 128.064 126.883 128.624 124.963Z" fill="#EEEEEE"/>
<path d="M65.4079 138.654L65.6941 136.434C65.8568 135.171 66.8853 134.303 68.2187 134.303H71.2505C73.2505 134.303 75.0064 136.197 74.7623 138.091L74.4762 140.311C74.3135 141.573 73.2849 142.441 71.9516 142.441H68.9197C66.9197 142.441 65.1638 140.548 65.4079 138.654Z" fill="#EEEEEE"/>
<path d="M80.5164 138.654L80.8026 136.434C80.9653 135.171 81.9939 134.303 83.3272 134.303H86.3591C88.3591 134.303 90.115 136.197 89.8709 138.091L89.5847 140.311C89.422 141.573 88.3934 142.441 87.0601 142.441H84.0282C82.0282 142.441 80.2723 140.548 80.5164 138.654Z" fill="#EEEEEE"/>
<path d="M95.625 138.654L95.9111 136.434C96.0738 135.171 97.1024 134.303 98.4357 134.303H101.468C103.468 134.303 105.223 136.197 104.979 138.091L104.693 140.311C104.531 141.573 103.502 142.441 102.169 142.441H99.1368C97.1368 142.441 95.3809 140.548 95.625 138.654Z" fill="#EEEEEE"/>
<path d="M110.592 138.745L110.801 136.525C110.924 135.217 111.967 134.303 113.336 134.303H115.33C117.291 134.303 119.028 136.127 118.852 138L118.643 140.22C118.52 141.527 117.478 142.441 116.109 142.441H114.114C112.154 142.441 110.416 140.617 110.592 138.745Z" fill="#EEEEEE"/>
<path d="M124.466 138.654L124.752 136.434C124.915 135.171 125.944 134.303 127.277 134.303H130.309C132.309 134.303 134.065 136.197 133.821 138.091L133.534 140.311C133.372 141.573 132.343 142.441 131.01 142.441H127.978C125.978 142.441 124.222 140.548 124.466 138.654Z" fill="#EEEEEE"/>
<path d="M64.7396 152.226L64.6651 150.097C64.6228 148.887 65.5103 148.054 66.8437 148.054H69.8755C71.8755 148.054 73.939 149.87 74.0025 151.686L74.077 153.815C74.1193 155.025 73.2318 155.858 71.8984 155.858H68.8666C66.8666 155.858 64.8031 154.042 64.7396 152.226Z" fill="#EEEEEE"/>
<path d="M79.8481 152.226L79.7736 150.097C79.7313 148.887 80.6189 148.054 81.9522 148.054H84.9841C86.9841 148.054 89.0476 149.87 89.1111 151.686L89.1855 153.815C89.2278 155.025 88.3403 155.858 87.007 155.858H83.9751C81.9751 155.858 79.9116 154.042 79.8481 152.226Z" fill="#EEEEEE"/>
<path d="M94.9566 152.226L94.8822 150.097C94.8398 148.887 95.7274 148.054 97.0607 148.054H100.093C102.093 148.054 104.156 149.87 104.22 151.686L104.294 153.815C104.336 155.025 103.449 155.858 102.115 155.858H99.0836C97.0836 155.858 95.0201 154.042 94.9566 152.226Z" fill="#EEEEEE"/>
<path d="M109.939 152.313L109.787 150.185C109.698 148.931 110.592 148.054 111.961 148.054H113.955C115.916 148.054 117.95 149.803 118.078 151.599L118.229 153.727C118.319 154.981 117.424 155.858 116.055 155.858H114.061C112.101 155.858 110.067 154.109 109.939 152.313Z" fill="#EEEEEE"/>
<path d="M123.798 152.226L123.723 150.097C123.681 148.887 124.569 148.054 125.902 148.054H128.934C130.934 148.054 132.997 149.87 133.061 151.686L133.135 153.815C133.178 155.025 132.29 155.858 130.957 155.858H127.925C125.925 155.858 123.861 154.042 123.798 152.226Z" fill="#EEEEEE"/>
<rect width="24.0641" height="28.1894" rx="2" transform="matrix(1 0 -0.197144 0.980375 117.878 85.4877)" fill="white"/>
<rect width="31.6271" height="4.12527" rx="2" transform="matrix(1 0 -0.213371 0.976971 83.0057 85.4877)" fill="white"/>
<rect width="18.5637" height="4.12527" rx="2" transform="matrix(1 0 -0.213371 0.976971 93.3192 97.1759)" fill="white"/>
<rect width="36.4399" height="4.12527" rx="2" transform="matrix(1 0 -0.213371 0.976971 73.3806 106.802)" fill="white"/>
<path d="M80.3093 81.9033C79.1994 80.9827 78.2741 79.6452 77.6273 78.0264C76.9805 76.4076 76.6352 74.5651 76.6264 72.6857C76.6176 70.8064 76.9457 68.957 77.5773 67.3252C78.2089 65.6934 79.1217 64.3372 80.2229 63.3942C81.3242 62.4511 82.5748 61.9547 83.8479 61.9554C85.1211 61.956 86.3714 62.4536 87.4723 63.3978C88.5731 64.342 89.4852 65.6991 90.116 67.3315C90.7469 68.964 91.0741 70.8137 91.0645 72.693L88.4514 72.6638C88.4575 71.4647 88.2488 70.2846 87.8462 69.2431C87.4437 68.2015 86.8618 67.3357 86.1594 66.7333C85.4571 66.1309 84.6593 65.8134 83.847 65.8129C83.0347 65.8125 82.2368 66.1292 81.5342 66.7309C80.8316 67.3326 80.2492 68.1979 79.8462 69.239C79.4433 70.2802 79.2339 71.4601 79.2395 72.6592C79.2451 73.8582 79.4654 75.0338 79.8781 76.0666C80.2908 77.0995 80.8811 77.9528 81.5893 78.5402L80.3093 81.9033Z" fill="#133C6D"/>
<path d="M109.186 82.5908C108.077 81.6702 107.151 80.3327 106.504 78.7139C105.858 77.0951 105.512 75.2526 105.504 73.3732C105.495 71.4939 105.823 69.6445 106.455 68.0127C107.086 66.3809 107.999 65.0247 109.1 64.0817C110.201 63.1386 111.452 62.6422 112.725 62.6429C113.998 62.6435 115.249 63.1411 116.349 64.0853C117.45 65.0295 118.362 66.3866 118.993 68.019C119.624 69.6515 119.951 71.5012 119.942 73.3805L117.329 73.3513C117.335 72.1522 117.126 70.9721 116.723 69.9306C116.321 68.889 115.739 68.0232 115.037 67.4208C114.334 66.8184 113.537 66.5009 112.724 66.5004C111.912 66.5 111.114 66.8167 110.411 67.4184C109.709 68.0201 109.126 68.8854 108.723 69.9265C108.32 70.9677 108.111 72.1476 108.117 73.3467C108.122 74.5457 108.343 75.7213 108.755 76.7541C109.168 77.787 109.758 78.6403 110.467 79.2277L109.186 82.5908Z" fill="#133C6D"/>
<path d="M135.313 83.2783C134.203 82.3577 133.277 81.0202 132.631 79.4014C131.984 77.7826 131.639 75.9401 131.63 74.0607C131.621 72.1814 131.949 70.332 132.581 68.7002C133.212 67.0684 134.125 65.7122 135.226 64.7692C136.328 63.8261 137.578 63.3297 138.851 63.3304C140.124 63.331 141.375 63.8286 142.476 64.7728C143.576 65.717 144.489 67.0741 145.119 68.7065C145.75 70.339 146.078 72.1887 146.068 74.068L143.455 74.0388C143.461 72.8397 143.252 71.6596 142.85 70.6181C142.447 69.5765 141.865 68.7107 141.163 68.1083C140.461 67.5059 139.663 67.1884 138.85 67.1879C138.038 67.1875 137.24 67.5042 136.538 68.1059C135.835 68.7076 135.253 69.5729 134.85 70.614C134.447 71.6552 134.237 72.8351 134.243 74.0342C134.249 75.2332 134.469 76.4088 134.882 77.4416C135.294 78.4745 135.885 79.3278 136.593 79.9152L135.313 83.2783Z" fill="#133C6D"/>
<path d="M83.8455 119.266L87.3455 126.766L97.8455 114.766" stroke="#A6DA1E" stroke-width="6"/>
</svg>
