<svg width="229" height="229" viewBox="0 0 229 229" fill="none" xmlns="http://www.w3.org/2000/svg">
<mask id="mask0" mask-type="alpha" maskUnits="userSpaceOnUse" x="0" y="0" width="229" height="229">
<circle cx="114.344" cy="114.61" r="114.156" fill="#009CE0"/>
</mask>
<g mask="url(#mask0)">
<circle cx="114.344" cy="114.61" r="114.156" fill="#E0F5FF"/>
<ellipse cx="114.344" cy="190.674" rx="130.331" ry="90.5794" fill="#009CE0"/>
<mask id="mask1" mask-type="alpha" maskUnits="userSpaceOnUse" x="-16" y="99" width="261" height="183">
<ellipse cx="114.344" cy="190.538" rx="130.331" ry="90.5794" fill="#009CE0"/>
</mask>
<g mask="url(#mask1)">
<path d="M195.107 170.798L139.045 148.294C138.412 148.04 137.714 147.998 137.055 148.174L114.906 154.109C114.527 154.211 114.132 154.237 113.743 154.186C113.354 154.135 112.979 154.008 112.64 153.811L99.3985 146.166C99.0398 145.959 98.6439 145.825 98.2334 145.772C97.8228 145.718 97.4057 145.745 97.0059 145.853L56.5208 156.701C55.9502 156.854 55.3471 156.834 54.7878 156.644C54.2285 156.454 53.738 156.103 53.3784 155.634C53.0188 155.166 52.8063 154.601 52.7676 154.011C52.729 153.422 52.866 152.834 53.1614 152.323L57.853 144.197C58.0487 143.857 58.3097 143.559 58.6209 143.32C58.9321 143.081 59.2874 142.907 59.6664 142.805L84.3046 136.204C85.6315 135.848 86.806 135.069 87.6494 133.984C88.4927 132.9 88.9586 131.569 88.9763 130.196L89.2239 110.143C89.2283 109.712 89.321 109.287 89.4962 108.893C89.6714 108.5 89.9253 108.146 90.2424 107.855L108.267 91.4898C108.672 91.1206 108.968 90.6469 109.122 90.1207C109.276 89.5946 109.283 89.0361 109.14 88.5067L106.591 78.9924C106.434 78.4018 106.46 77.7774 106.666 77.202L113.492 58.2252C113.696 57.6552 114.071 57.1618 114.565 56.8118L128.551 46.8072C129.046 46.4537 129.421 45.9575 129.626 45.3849C129.831 44.8124 129.857 44.1909 129.699 43.6035L127.374 34.9265C127.247 34.4507 127.004 34.0137 126.667 33.6543C126.33 33.2949 125.91 33.0241 125.443 32.8659L107.077 26.676C106.574 26.509 106.035 26.4778 105.515 26.5855C104.995 26.6933 104.513 26.9362 104.117 27.2897L85.7398 43.5861C85.3186 43.9558 84.8016 44.1993 84.2483 44.2884C83.6949 44.3775 83.1276 44.3086 82.6116 44.0898L70.4181 38.832C70.0007 38.6479 69.631 38.3708 69.337 38.022C69.0431 37.6731 68.8327 37.2617 68.722 36.8192C68.6113 36.3766 68.6032 35.9146 68.6982 35.4685C68.7933 35.0223 68.9891 34.6038 69.2705 34.2448L75.832 26.0338C76.1293 25.6632 76.3337 25.2268 76.428 24.7612C76.5223 24.2955 76.5039 23.814 76.3742 23.3569C76.2446 22.8998 76.0074 22.4804 75.6826 22.1336C75.3578 21.7868 74.9548 21.5228 74.5072 21.3635L59.3932 15.893C58.8692 15.7008 58.3018 15.6596 57.7555 15.7743C57.2093 15.8889 56.7063 16.1547 56.3038 16.5414C52.3739 20.2946 40.8624 31.3739 36.9666 36.0154C18.949 57.5189 6.70926 83.2598 1.403 110.808C0.784564 114.041 -0.146886 117.415 0.527965 120.603C1.20282 123.792 0.61711 131.47 0.350293 134.584C0.314517 135.005 0.368673 135.429 0.509171 135.827C0.649669 136.226 0.873291 136.59 1.1652 136.895L41.7052 179.532C42.0712 179.92 42.5357 180.201 43.0492 180.346L76.227 189.844C76.657 189.966 77.0541 190.182 77.389 190.478C77.7238 190.774 77.9878 191.141 78.1615 191.553L95.0085 231.532C95.1711 231.915 95.4112 232.26 95.7137 232.545C96.0162 232.831 96.3746 233.05 96.7663 233.19L123.175 242.544C123.94 242.815 124.571 243.37 124.937 244.095L151.816 297.098C151.971 297.41 152.182 297.691 152.438 297.927C154.031 299.425 160.223 304.814 165.827 304.357C165.369 304.626 165.011 305.057 164.555 305.334C165.899 305.216 167.248 305.17 168.597 305.197C170.23 305.2 171.846 305.143 173.456 305.062C175.965 304.896 176.298 305.198 176.873 302.776C177.637 299.536 179.119 298.095 180.326 297.396C180.83 297.129 181.249 296.724 181.533 296.229C181.818 295.735 181.957 295.17 181.935 294.6L180.079 257.016C180.041 256.228 180.299 255.454 180.803 254.847L208.549 221.389C208.871 221.001 209.096 220.541 209.204 220.048C209.312 219.555 209.299 219.043 209.168 218.556L196.94 172.918C196.818 172.447 196.59 172.011 196.272 171.643C195.954 171.276 195.555 170.986 195.107 170.798V170.798Z" fill="#A6DA1E"/>
<path d="M77.4693 164.7L82.7193 158.7M87.9692 152.7L82.7193 158.7M82.7193 158.7L87.9692 163.294M82.7193 158.7L76.491 153.632" stroke="#FF4D4D" stroke-width="6"/>
</g>
<path d="M83.5876 158.275C125.22 102.765 177.558 141.225 187.867 115.849" stroke="#FF4D4D" stroke-width="6" stroke-dasharray="10 10"/>
</g>
</svg>
