<svg width="229" height="229" viewBox="0 0 229 229" fill="none" xmlns="http://www.w3.org/2000/svg">
<circle cx="114.344" cy="114.767" r="114.156" fill="#E0F5FF"/>
<path d="M172.687 164.555L158.592 75.5182C149.517 87.619 147.935 142.21 148.279 167.993C150.571 165.243 155.842 158.436 158.592 153.211C164.918 162.286 170.625 164.555 172.687 164.555Z" fill="#133C6D"/>
<path d="M141.018 150.461L158.55 152.867C155.406 159.291 153.108 162.579 148.237 167.993L137.924 168.337L141.018 150.461Z" fill="#007DB4"/>
<path d="M57.1378 163.524C51.9125 144.548 65.9613 95.3425 73.6389 73.1118C75.1285 73.1118 94.1276 73.5931 158.207 75.5182C150.506 92.8444 148.123 144.387 147.894 167.993C144.914 168.795 122.592 169.024 57.1378 163.524Z" fill="#009CE0"/>
<path d="M68.1206 124.963L68.777 122.712C69.1504 121.432 70.3237 120.552 71.657 120.552H74.6889C76.6889 120.552 78.1289 122.472 77.5689 124.392L76.9125 126.643C76.5391 127.923 75.3658 128.803 74.0325 128.803H71.0006C69.0006 128.803 67.5606 126.883 68.1206 124.963Z" fill="#EEEEEE"/>
<path d="M83.2467 124.963L83.9031 122.712C84.2765 121.432 85.4498 120.552 86.7831 120.552H89.815C91.815 120.552 93.255 122.472 92.695 124.392L92.0386 126.643C91.6652 127.923 90.4919 128.803 89.1586 128.803H86.1267C84.1267 128.803 82.6867 126.883 83.2467 124.963Z" fill="#EEEEEE"/>
<path d="M98.3728 124.963L99.0292 122.712C99.4026 121.432 100.576 120.552 101.909 120.552H104.941C106.941 120.552 108.381 122.472 107.821 124.392L107.165 126.643C106.791 127.923 105.618 128.803 104.285 128.803H101.253C99.2528 128.803 97.8128 126.883 98.3728 124.963Z" fill="#EEEEEE"/>
<path d="M113.499 124.963L114.155 122.712C114.529 121.432 115.702 120.552 117.035 120.552H120.067C122.067 120.552 123.507 122.472 122.947 124.392L122.291 126.643C121.917 127.923 120.744 128.803 119.411 128.803H116.379C114.379 128.803 112.939 126.883 113.499 124.963Z" fill="#EEEEEE"/>
<path d="M128.625 124.963L129.282 122.712C129.655 121.432 130.828 120.552 132.162 120.552H135.193C137.193 120.552 138.633 122.472 138.073 124.392L137.417 126.643C137.044 127.923 135.87 128.803 134.537 128.803H131.505C129.505 128.803 128.065 126.883 128.625 124.963Z" fill="#EEEEEE"/>
<path d="M65.4088 138.654L65.6949 136.434C65.8576 135.171 66.8862 134.303 68.2195 134.303H71.2514C73.2514 134.303 75.0073 136.197 74.7632 138.091L74.4771 140.311C74.3143 141.573 73.2858 142.441 71.9524 142.441H68.9206C66.9206 142.441 65.1647 140.548 65.4088 138.654Z" fill="#EEEEEE"/>
<path d="M80.5173 138.654L80.8034 136.434C80.9662 135.171 81.9947 134.303 83.328 134.303H86.3599C88.3599 134.303 90.1158 136.197 89.8717 138.091L89.5856 140.311C89.4229 141.573 88.3943 142.441 87.061 142.441H84.0291C82.0291 142.441 80.2732 140.548 80.5173 138.654Z" fill="#EEEEEE"/>
<path d="M95.6258 138.654L95.9119 136.434C96.0747 135.171 97.1032 134.303 98.4366 134.303H101.468C103.468 134.303 105.224 136.197 104.98 138.091L104.694 140.311C104.531 141.573 103.503 142.441 102.169 142.441H99.1376C97.1376 142.441 95.3817 140.548 95.6258 138.654Z" fill="#EEEEEE"/>
<path d="M110.593 138.745L110.802 136.525C110.925 135.217 111.968 134.303 113.337 134.303H115.331C117.291 134.303 119.029 136.127 118.853 138L118.644 140.22C118.521 141.527 117.478 142.441 116.109 142.441H114.115C112.155 142.441 110.417 140.617 110.593 138.745Z" fill="#EEEEEE"/>
<path d="M124.467 138.654L124.753 136.434C124.916 135.171 125.944 134.303 127.278 134.303H130.31C132.31 134.303 134.066 136.197 133.821 138.091L133.535 140.311C133.373 141.573 132.344 142.441 131.011 142.441H127.979C125.979 142.441 124.223 140.548 124.467 138.654Z" fill="#EEEEEE"/>
<path d="M64.7404 152.226L64.666 150.097C64.6236 148.887 65.5112 148.054 66.8445 148.054H69.8764C71.8764 148.054 73.9399 149.87 74.0034 151.686L74.0778 153.815C74.1202 155.025 73.2326 155.858 71.8993 155.858H68.8674C66.8674 155.858 64.8039 154.042 64.7404 152.226Z" fill="#EEEEEE"/>
<path d="M79.8489 152.226L79.7745 150.097C79.7321 148.887 80.6197 148.054 81.953 148.054H84.9849C86.9849 148.054 89.0484 149.87 89.1119 151.686L89.1864 153.815C89.2287 155.025 88.3411 155.858 87.0078 155.858H83.9759C81.9759 155.858 79.9124 154.042 79.8489 152.226Z" fill="#EEEEEE"/>
<path d="M94.9574 152.226L94.883 150.097C94.8407 148.887 95.7282 148.054 97.0616 148.054H100.093C102.093 148.054 104.157 149.87 104.22 151.686L104.295 153.815C104.337 155.025 103.45 155.858 102.116 155.858H99.0845C97.0845 155.858 95.021 154.042 94.9574 152.226Z" fill="#EEEEEE"/>
<path d="M109.94 152.313L109.788 150.185C109.699 148.931 110.593 148.054 111.962 148.054H113.956C115.916 148.054 117.951 149.803 118.079 151.599L118.23 153.727C118.32 154.981 117.425 155.858 116.056 155.858H114.062C112.102 155.858 110.068 154.109 109.94 152.313Z" fill="#EEEEEE"/>
<path d="M123.799 152.226L123.724 150.097C123.682 148.887 124.569 148.054 125.903 148.054H128.935C130.935 148.054 132.998 149.87 133.062 151.686L133.136 153.815C133.178 155.025 132.291 155.858 130.958 155.858H127.926C125.926 155.858 123.862 154.042 123.799 152.226Z" fill="#EEEEEE"/>
<rect width="24.0641" height="28.1894" rx="2" transform="matrix(1 0 -0.197144 0.980375 117.879 85.4877)" fill="white"/>
<rect width="31.6271" height="4.12527" rx="2" transform="matrix(1 0 -0.213371 0.976971 83.0066 85.4877)" fill="white"/>
<rect width="18.5637" height="4.12527" rx="2" transform="matrix(1 0 -0.213371 0.976971 93.3201 97.1759)" fill="white"/>
<rect width="36.4399" height="4.12527" rx="2" transform="matrix(1 0 -0.213371 0.976971 73.3815 106.802)" fill="white"/>
<path d="M80.3102 81.9033C79.2002 80.9827 78.2749 79.6452 77.6281 78.0264C76.9813 76.4076 76.636 74.5651 76.6273 72.6857C76.6185 70.8064 76.9466 68.957 77.5782 67.3252C78.2098 65.6934 79.1225 64.3372 80.2238 63.3942C81.325 62.4511 82.5756 61.9547 83.8488 61.9554C85.1219 61.956 86.3723 62.4536 87.4731 63.3978C88.5739 64.342 89.486 65.6991 90.1169 67.3315C90.7478 68.964 91.075 70.8137 91.0653 72.693L88.4522 72.6638C88.4584 71.4647 88.2496 70.2846 87.8471 69.2431C87.4446 68.2015 86.8626 67.3357 86.1603 66.7333C85.458 66.1309 84.6602 65.8134 83.8479 65.8129C83.0356 65.8125 82.2377 66.1292 81.5351 66.7309C80.8324 67.3326 80.2501 68.1979 79.8471 69.239C79.4441 70.2802 79.2348 71.4601 79.2404 72.6592C79.246 73.8582 79.4663 75.0338 79.879 76.0666C80.2916 77.0995 80.882 77.9528 81.5902 78.5402L80.3102 81.9033Z" fill="#133C6D"/>
<path d="M109.187 82.5908C108.078 81.6702 107.152 80.3327 106.505 78.7139C105.859 77.0951 105.513 75.2526 105.505 73.3732C105.496 71.4939 105.824 69.6445 106.455 68.0127C107.087 66.3809 108 65.0247 109.101 64.0817C110.202 63.1386 111.453 62.6422 112.726 62.6429C113.999 62.6435 115.25 63.1411 116.35 64.0853C117.451 65.0295 118.363 66.3866 118.994 68.019C119.625 69.6515 119.952 71.5012 119.943 73.3805L117.33 73.3513C117.336 72.1522 117.127 70.9721 116.724 69.9306C116.322 68.889 115.74 68.0232 115.038 67.4208C114.335 66.8184 113.538 66.5009 112.725 66.5004C111.913 66.5 111.115 66.8167 110.412 67.4184C109.71 68.0201 109.127 68.8854 108.724 69.9265C108.321 70.9677 108.112 72.1476 108.118 73.3467C108.123 74.5457 108.344 75.7213 108.756 76.7541C109.169 77.787 109.759 78.6403 110.467 79.2277L109.187 82.5908Z" fill="#133C6D"/>
<path d="M135.313 83.2783C134.204 82.3577 133.278 81.0202 132.631 79.4014C131.985 77.7826 131.639 75.9401 131.631 74.0607C131.622 72.1814 131.95 70.332 132.581 68.7002C133.213 67.0684 134.126 65.7122 135.227 64.7692C136.328 63.8261 137.579 63.3297 138.852 63.3304C140.125 63.331 141.376 63.8286 142.476 64.7728C143.577 65.717 144.489 67.0741 145.12 68.7065C145.751 70.339 146.078 72.1887 146.069 74.068L143.456 74.0388C143.462 72.8397 143.253 71.6596 142.85 70.6181C142.448 69.5765 141.866 68.7107 141.164 68.1083C140.461 67.5059 139.663 67.1884 138.851 67.1879C138.039 67.1875 137.241 67.5042 136.538 68.1059C135.836 68.7076 135.253 69.5729 134.85 70.614C134.447 71.6552 134.238 72.8351 134.244 74.0342C134.249 75.2332 134.47 76.4088 134.882 77.4416C135.295 78.4745 135.885 79.3278 136.593 79.9152L135.313 83.2783Z" fill="#133C6D"/>
<path d="M111.223 133.303L114.723 140.803L125.223 128.803" stroke="#A6DA1E" stroke-width="6"/>
</svg>
